<?xml version="1.0" encoding="UTF-8" standalone="no"?>
<!-- Generator: Adobe Illustrator 27.0.1, SVG Export Plug-In . SVG Version: 6.00 Build 0)  -->

<svg
   version="1.1"
   id="Layer_1"
   x="0px"
   y="0px"
   viewBox="0 0 1686.692 483.82489"
   enable-background="new 0 0 241 150"
   xml:space="preserve"
   width="1686.692"
   height="483.82489"
   xmlns:xlink="http://www.w3.org/1999/xlink"
   xmlns="http://www.w3.org/2000/svg"
   xmlns:svg="http://www.w3.org/2000/svg"><defs
   id="defs2" />
<g
   id="g1"
   transform="matrix(7,0,0,7,-0.259,-229.537)">
	<defs
   id="defs1"><rect
     id="SVGID_1_"
     y="0"
     width="241"
     height="150"
     x="0" /></defs>
	<clipPath
   id="SVGID_00000026850260467459019360000001217431612027455922_">
		<use
   xlink:href="#SVGID_1_"
   overflow="visible"
   id="use1" />
	</clipPath>
	<g
   id="vileda"
   clip-path="url(#SVGID_00000026850260467459019360000001217431612027455922_)">
		<path
   id="Path_5622"
   fill="#41b8d4"
   d="m 65.232,42.147 c -7.909,7.9 -9.376,19.248 -9.376,19.248 0,0 11.348,-1.459 19.252,-9.359 7.904,-7.9 9.38,-19.245 9.38,-19.245 0,0 -11.345,1.461 -19.256,9.356 z" />
		<path
   id="Path_5623"
   fill="#fc0019"
   d="m 229.113,61.903 c -0.002,-2.423 1.96,-4.389 4.383,-4.391 2.423,-0.002 4.389,1.96 4.391,4.383 0.002,2.423 -1.96,4.389 -4.383,4.391 -0.003,0 -0.006,0 -0.009,0 -2.418,-0.005 -4.378,-1.965 -4.382,-4.383 m -0.895,0 c -0.003,2.918 2.36,5.287 5.278,5.29 2.918,0.003 5.287,-2.36 5.29,-5.278 0.003,-2.918 -2.36,-5.287 -5.278,-5.29 -0.005,0 -0.009,0 -0.014,0 -2.912,0.006 -5.271,2.366 -5.276,5.278 m 4.093,-2.584 h 1.04 c 1.079,0 1.529,0.309 1.529,1.023 0,1.017 -1.074,1.017 -1.947,1.017 h -0.706 c 0,0 0.079,-1.878 0.084,-2.04 m 1.963,2.832 c 0.935,-0.085 1.649,-0.871 1.645,-1.81 0,-1.714 -1.4,-1.947 -2.762,-1.947 h -1.73 l -0.085,6.909 h 0.885 l 0.094,-3.113 0.927,0.091 1.752,2.98 1.059,0.042 h 0.159 c 0,0 -1.85,-2.993 -1.944,-3.152 m -58.8,8.185 c -12.058,-3.81 -26.36,-1.35 -29.932,9.344 -1.289,3.638 -1.322,7.603 -0.093,11.262 2.084,6.233 7.879,9.723 13.994,10.68 6.541,1.017 12.627,-0.882 16.328,-2.389 0.276,0.913 1.682,1.885 3.545,1.885 l 10.619,0.005 v -44.3 h -14.461 z m 0,7.309 v 15.14 c -7.607,3.131 -13.96,0.868 -15.17,-4.488 -0.336,-1.517 -0.368,-3.086 -0.093,-4.615 0.693,-5.357 4.315,-7.516 10.139,-7.207 1.753,0.155 3.477,0.549 5.124,1.17 M 13.037,69.325 h -13 c 2.977,1.674 4.421,4.248 6.363,8.148 1.419,2.849 12.119,23.626 12.119,23.626 H 37.162 L 53.6,69.361 40.853,69.349 c 0,0 -9.992,17.856 -10.5,19.068 -0.517,1.123 -0.907,2.3 -1.162,3.51 0,0 -0.963,-2.72 -1.329,-3.51 -0.366,-0.79 -2.834,-5.555 -6.152,-12.063 -2.2,-4.324 -2.642,-7.028 -8.68,-7.028 m 42.814,31.778 H 70.121 V 69.325 H 55.849 Z m 22.266,0 14.056,0.006 V 53.91 L 78.11,66.01 Z M 133.775,88.73 c 0,0 7.589,-6.357 7.458,-6.357 -1.3,-10.077 -9.957,-14.814 -24.864,-13.6 -11.859,0.927 -19.493,6.653 -19.191,16.436 0.436,12.321 10.854,17.464 30.2,16.375 5.883,-0.332 8.494,-1.476 8.494,-1.476 l 4.659,-7.879 c -5.865,1.946 -12.049,2.749 -18.217,2.364 -7.218,-0.449 -9.868,-3.373 -10.372,-5.864 z m -22.231,-6.407 c -0.173,-3.323 2.073,-6.288 5.319,-7.021 5.229,-1.478 11.419,0.7 11.245,7.021 z m 112.458,-1.9 c -19.805,-1.064 -28.188,2.61 -29.826,9.256 -1.647,6.692 3.906,12.676 17.272,12.139 4.217,-0.167 9.894,-0.987 12.589,-2.566 1.102,1.215 2.675,1.895 4.315,1.866 3.216,0 12.641,0.009 12.641,0.009 0,0 -2.626,-1.7 -2.626,-7.163 V 79.079 c 0,-7.786 -6.141,-10.507 -24.742,-10.507 -10.9,0 -14.107,1.274 -14.107,1.274 l -2.258,7.327 c 4.798,-0.948 9.662,-1.519 14.549,-1.709 9.122,-0.2 12.2,0.819 12.2,4 z m 0,5.965 v 7.285 c -2.62,1.023 -5.427,1.48 -8.236,1.339 -5.021,-0.3 -7.769,-2.364 -6.327,-5.332 1.247,-2.564 4.611,-3.488 14.563,-3.291" />
		<path
   id="Path_5624"
   fill="#8cc919"
   d="m 60.762,42.147 c -7.912,-7.9 -19.258,-9.356 -19.258,-9.356 0,0 1.473,11.348 9.381,19.245 7.908,7.897 19.252,9.359 19.252,9.359 0,0 -1.466,-11.343 -9.375,-19.248 z" />
	</g>
</g>
</svg>
